<svg xmlns="http://www.w3.org/2000/svg" width="21.569" height="20.301" viewBox="0 0 21.569 20.301">
  <g id="shopping-cart-of-checkered-design" transform="translate(0 -13.141)">
    <path id="Path_1050" data-name="Path 1050" d="M21.436,17a.692.692,0,0,0-.559-.284H5.306a.672.672,0,0,0-.089.006l-.641-1.847a.693.693,0,0,0-.4-.417L.945,13.189a.692.692,0,1,0-.506,1.288L3.372,15.63l3.59,10.349a.573.573,0,0,0-.354.347L5.571,29.209a.577.577,0,0,0,.543.772h.533a2.076,2.076,0,1,0,3.086,0h4.527a2.076,2.076,0,1,0,3.086,0h.648a.577.577,0,0,0,0-1.153H6.934l.643-1.786a.685.685,0,0,0,.267.056h10.15a.692.692,0,0,0,.659-.481l2.884-9A.692.692,0,0,0,21.436,17ZM8.189,32.288a.923.923,0,1,1,.923-.923A.924.924,0,0,1,8.189,32.288Zm7.613,0a.923.923,0,1,1,.923-.923A.924.924,0,0,1,15.8,32.288Zm3.628-12.63H15.9V18.1h4.031ZM18.413,22.83H15.9V21.042h3.088Zm-7.09,0V21.042h3.191V22.83Zm3.191,1.384v1.5H11.323v-1.5Zm-7.8-3.172H9.939V22.83h-2.6Zm4.608-1.384V18.1h3.191v1.557ZM9.939,18.1v1.557h-3.7L5.694,18.1ZM7.816,24.214H9.939v1.5h-1.6Zm8.083,1.5v-1.5h2.071l-.481,1.5Z" transform="translate(0 0)"/>
  </g>
</svg>
