<svg id="Group_307" data-name="Group 307" xmlns="http://www.w3.org/2000/svg" width="42.567" height="42.567" viewBox="0 0 42.567 42.567">
  <defs>
    <style>
      .cls-1 {
        fill: #2c150c;
      }

      .cls-2 {
        fill: none;
      }

      .cls-3, .cls-4 {
        stroke: none;
      }

      .cls-4 {
        fill: #2c150c;
      }
    </style>
  </defs>
  <g id="Group_305" data-name="Group 305" transform="translate(12.105 13.706)">
    <path id="Path_147" data-name="Path 147" class="cls-1" d="M43.751,35.822a7.633,7.633,0,0,1-2.2.6,3.836,3.836,0,0,0,1.683-2.116,7.659,7.659,0,0,1-2.43.928,3.829,3.829,0,0,0-6.52,3.49,10.861,10.861,0,0,1-7.886-4,3.83,3.83,0,0,0,1.184,5.108,3.8,3.8,0,0,1-1.733-.479c0,.016,0,.033,0,.049a3.828,3.828,0,0,0,3.069,3.751,3.841,3.841,0,0,1-1.728.066,3.83,3.83,0,0,0,3.574,2.657A7.724,7.724,0,0,1,25.1,47.464,10.88,10.88,0,0,0,41.853,38.3c0-.166,0-.331-.011-.495a7.758,7.758,0,0,0,1.909-1.98Z" transform="translate(-25.103 -34.028)"/>
  </g>
  <g id="Path_1073" data-name="Path 1073" class="cls-2">
    <path class="cls-3" d="M21.284,0A21.284,21.284,0,1,1,0,21.284,21.284,21.284,0,0,1,21.284,0Z"/>
    <path class="cls-4" d="M 21.28364181518555 0.5 C 18.47765159606934 0.5 15.75585174560547 1.049449920654297 13.19386100769043 2.133083343505859 C 10.71902275085449 3.179851531982422 8.496280670166016 4.678493499755859 6.587390899658203 6.587390899658203 C 4.678493499755859 8.496280670166016 3.179851531982422 10.71902275085449 2.133083343505859 13.19386100769043 C 1.049449920654297 15.75585174560547 0.5 18.47765159606934 0.5 21.28364181518555 C 0.5 24.08963203430176 1.049449920654297 26.81143188476563 2.133083343505859 29.37342071533203 C 3.179851531982422 31.84826278686523 4.678493499755859 34.07100296020508 6.587390899658203 35.97989273071289 C 8.496280670166016 37.8887939453125 10.71902275085449 39.38743209838867 13.19386100769043 40.43420028686523 C 15.75585174560547 41.51782989501953 18.47765159606934 42.06728363037109 21.28364181518555 42.06728363037109 C 24.08963203430176 42.06728363037109 26.81143188476563 41.51782989501953 29.37342071533203 40.43420028686523 C 31.84826278686523 39.38743209838867 34.07100296020508 37.8887939453125 35.97989273071289 35.97989273071289 C 37.8887939453125 34.07100296020508 39.38743209838867 31.84826278686523 40.43420028686523 29.37342071533203 C 41.51782989501953 26.81143188476563 42.06728363037109 24.08963203430176 42.06728363037109 21.28364181518555 C 42.06728363037109 18.47765159606934 41.51782989501953 15.75585174560547 40.43420028686523 13.19386100769043 C 39.38743209838867 10.71902275085449 37.8887939453125 8.496280670166016 35.97989273071289 6.587390899658203 C 34.07100296020508 4.678493499755859 31.84826278686523 3.179851531982422 29.37342071533203 2.133083343505859 C 26.81143188476563 1.049449920654297 24.08963203430176 0.5 21.28364181518555 0.5 M 21.28364181518555 0 C 33.03827285766602 0 42.56728363037109 9.529010772705078 42.56728363037109 21.28364181518555 C 42.56728363037109 33.03827285766602 33.03827285766602 42.56728363037109 21.28364181518555 42.56728363037109 C 9.529010772705078 42.56728363037109 0 33.03827285766602 0 21.28364181518555 C 0 9.529010772705078 9.529010772705078 0 21.28364181518555 0 Z"/>
  </g>
</svg>
