<svg xmlns="http://www.w3.org/2000/svg" width="17.642" height="21.801" viewBox="0 0 17.642 21.801">
  <defs>
    <style>
      .cls-1 {
        fill: none;
        stroke: #000;
        stroke-width: 1.5px;
      }
    </style>
  </defs>
  <g id="user" transform="translate(0.75 1.75)">
    <path id="Path_1" data-name="Path 1" class="cls-1" d="M91.692,9.32a4.509,4.509,0,0,0,3.295-1.365A4.509,4.509,0,0,0,96.352,4.66a4.509,4.509,0,0,0-1.365-3.295,4.659,4.659,0,0,0-6.59,0A4.509,4.509,0,0,0,87.032,4.66,4.509,4.509,0,0,0,88.4,7.955,4.51,4.51,0,0,0,91.692,9.32Zm0,0" transform="translate(-83.743 -1)"/>
    <path id="Path_2" data-name="Path 2" class="cls-1" d="M16.1,252.848a11.509,11.509,0,0,0-.157-1.223,9.63,9.63,0,0,0-.3-1.229,6.071,6.071,0,0,0-.505-1.146,4.326,4.326,0,0,0-.762-.993,3.359,3.359,0,0,0-1.095-.688,3.783,3.783,0,0,0-1.4-.253,1.418,1.418,0,0,0-.757.321c-.227.148-.493.319-.789.509a4.519,4.519,0,0,1-1.021.45,3.964,3.964,0,0,1-2.5,0,4.51,4.51,0,0,1-1.02-.45c-.294-.188-.559-.359-.79-.509a1.416,1.416,0,0,0-.757-.321,3.778,3.778,0,0,0-1.4.253,3.357,3.357,0,0,0-1.095.688A4.326,4.326,0,0,0,1,249.25,6.083,6.083,0,0,0,.5,250.4a9.655,9.655,0,0,0-.3,1.229,11.47,11.47,0,0,0-.157,1.223c-.026.37-.039.754-.039,1.142a3.213,3.213,0,0,0,.954,2.431,3.435,3.435,0,0,0,2.459.9h9.316a3.434,3.434,0,0,0,2.459-.9,3.211,3.211,0,0,0,.954-2.431c0-.39-.013-.774-.039-1.143Zm0,0" transform="translate(0 -238.017)"/>
  </g>
</svg>
